<?xml version="1.0" standalone="no"?>
<!DOCTYPE svg PUBLIC "-//W3C//DTD SVG 20010904//EN"
 "http://www.w3.org/TR/2001/REC-SVG-20010904/DTD/svg10.dtd">
<svg version="1.0" xmlns="http://www.w3.org/2000/svg"
 width="128.000000pt" height="128.000000pt" viewBox="0 0 128.000000 128.000000"
 preserveAspectRatio="xMidYMid meet">

<g transform="translate(0.000000,128.000000) scale(0.100000,-0.100000)"
fill="#000000" stroke="none">
<path d="M513 1166 c-239 -58 -413 -280 -413 -526 0 -298 244 -541 543 -540
242 1 461 171 522 407 19 73 19 193 0 266 -49 190 -209 348 -396 392 -76 18
-184 18 -256 1z m230 -61 c174 -37 327 -185 366 -356 17 -73 13 -181 -9 -253
-42 -133 -157 -257 -287 -306 -73 -28 -201 -37 -274 -20 -242 56 -409 300
-369 538 22 134 99 256 202 325 117 77 238 100 371 72z"/>
<path d="M865 855 c-51 -18 -101 -74 -109 -123 -3 -20 -6 -99 -6 -174 l0 -138
60 0 59 0 3 63 c3 56 5 62 26 65 20 3 22 9 22 63 0 56 -1 59 -25 59 -16 0 -25
6 -25 16 0 24 19 54 35 54 12 0 15 15 15 65 0 36 -3 65 -7 65 -5 -1 -26 -7
-48 -15z"/>
<path d="M360 640 l0 -220 60 0 60 0 0 160 c0 175 4 185 56 162 34 -16 33 -59
-1 -68 -23 -6 -25 -11 -25 -58 0 -36 10 -73 32 -123 l32 -73 67 0 67 0 -37 88
-38 87 23 28 c63 75 36 185 -53 223 -21 9 -71 14 -138 14 l-105 0 0 -220z"/>
</g>
</svg>
